<svg aria-hidden="true" style="width:0;height:0;position:absolute;overflow:hidden" xmlns="http://www.w3.org/2000/svg"><defs><symbol id="icon-vectors" viewBox="0 0 35 32"><path d="M17.251 2.96c3.946-3.946 10.345-3.946 14.291 0s3.946 10.345 0 14.291L17.251 31.542 2.96 17.251C-.986 13.305-.986 6.906 2.96 2.96s10.345-3.946 14.291 0zM29.16 5.342a6.736 6.736 0 0 0-9.527 0l-2.382 2.382-2.382-2.382a6.736 6.736 0 1 0-9.527 9.527l11.909 11.909L29.16 14.869a6.736 6.736 0 0 0 0-9.527z"/></symbol><symbol id="icon-cart" viewBox="0 0 32 32"><path d="M6.397 5.333H2.666V2.666h5.92l.845 4.26A1.334 1.334 0 0 0 10.739 8h13.412c2.793 0 4.726 2.79 3.745 5.405l-2 5.333a4 4 0 0 1-3.745 2.595h-7.106a6.666 6.666 0 0 1-6.539-5.369L6.397 5.333zm3.769 5.293.956 4.82a4 4 0 0 0 3.923 3.221h7.106c.556 0 1.053-.345 1.248-.865l2-5.333a1.333 1.333 0 0 0-1.248-1.802H10.739a4.04 4.04 0 0 1-.574-.041zM13.333 26a2 2 0 1 1-3.999.001A2 2 0 0 1 13.333 26zM23.333 28a2 2 0 1 0 .001-3.999A2 2 0 0 0 23.333 28z"/></symbol><symbol id="icon-heart" viewBox="0 0 32 32"><path d="m15.26 8.314.849.848.74-.74a7.249 7.249 0 0 1 10.25 10.25l-5.973 5.973a7.249 7.249 0 0 1-10.25 0l-5.973-5.973a7.249 7.249 0 0 1 10.25-10.25l.108-.108zm7.562 18.028 5.973-5.973a9.647 9.647 0 0 0 0-13.644C25.299 3.229 19.787 2.977 16 5.97c-3.787-2.993-9.299-2.741-12.795.755a9.647 9.647 0 0 0 0 13.644l5.973 5.973a9.647 9.647 0 0 0 13.644 0z"/></symbol><symbol id="icon-search" viewBox="0 0 32 32"><path fill="#5c5f60" style="fill:var(--color1,#5c5f60)" d="m22.157 24.042 4.9 4.9 1.886-1.886-4.9-4.9a11.95 11.95 0 0 0 2.624-7.49c0-6.627-5.373-12-12-12s-12 5.373-12 12 5.373 12 12 12a11.95 11.95 0 0 0 7.49-2.624zM24 14.667a9.333 9.333 0 1 1-18.666 0 9.333 9.333 0 0 1 18.666 0z"/></symbol><symbol id="icon-subtract" viewBox="0 0 32 32"><path d="M8.08 4.738c4.374-4.184 11.465-4.184 15.839 0 3.913 3.743 4.382 9.659 1.103 13.924L15.999 30.4 6.976 18.662C3.698 14.397 4.166 8.481 8.079 4.738zM16 17.6A4.8 4.8 0 1 0 16 8a4.8 4.8 0 0 0 0 9.6z"/></symbol><symbol id="icon-vector" viewBox="0 0 32 32"><path d="M24 10.4a1.6 1.6 0 0 1-1.6 1.6H9.6a1.6 1.6 0 1 1 0-3.2h12.8a1.6 1.6 0 0 1 1.6 1.6zM8 16.8a1.6 1.6 0 0 0 1.6 1.6h12.8a1.6 1.6 0 1 0 0-3.2H9.6A1.6 1.6 0 0 0 8 16.8z"/><path d="M6.4.8h19.2A6.4 6.4 0 0 1 32 7.2V20a6.4 6.4 0 0 1-6.4 6.4h-9.842c-.896 0-1.781.188-2.599.552l-7.31 3.249C3.099 31.424.001 29.41.001 26.4V7.2a6.4 6.4 0 0 1 6.4-6.4zM25.6 4H6.4a3.2 3.2 0 0 0-3.2 3.2v19.2a.959.959 0 0 0 1.349.876l7.311-3.249a9.608 9.608 0 0 1 3.899-.827h9.842a3.2 3.2 0 0 0 3.2-3.2V7.2a3.2 3.2 0 0 0-3.2-3.2z"/></symbol></defs></svg>