<svg aria-hidden="true" style="position: absolute; width: 0; height: 0; overflow: hidden;" version="1.1" xmlns="http://www.w3.org/2000/svg" xmlns:xlink="http://www.w3.org/1999/xlink">
<defs>
<symbol id="icon-vectors" viewBox="0 0 35 32">
<path d="M17.251 2.96c3.946-3.946 10.345-3.946 14.291 0s3.946 10.345 0 14.291l-14.291 14.291-14.291-14.291c-3.946-3.946-3.946-10.345 0-14.291s10.345-3.946 14.291-0zM29.16 5.342c-2.631-2.631-6.896-2.631-9.527-0l-2.382 2.382-2.382-2.382c-2.631-2.631-6.896-2.631-9.527 0s-2.631 6.896 0 9.527l11.909 11.909 11.909-11.909c2.631-2.631 2.631-6.896 0-9.527z"></path>
</symbol>
<symbol id="icon-cart" viewBox="0 0 32 32">
<path d="M6.397 5.333h-3.731v-2.667h5.92l0.845 4.26c0.124 0.624 0.672 1.074 1.308 1.074h13.412c2.793 0 4.726 2.79 3.745 5.405l-2 5.333c-0.585 1.561-2.078 2.595-3.745 2.595h-7.106c-3.182 0-5.92-2.248-6.539-5.369l-2.109-10.631zM10.166 10.626l0.956 4.82c0.372 1.872 2.014 3.221 3.923 3.221h7.106c0.556 0 1.053-0.345 1.248-0.865l2-5.333c0.327-0.872-0.317-1.802-1.248-1.802h-13.412c-0.194 0-0.386-0.014-0.574-0.041z"></path>
<path d="M13.333 26c0 1.105-0.895 2-2 2s-2-0.895-2-2c0-1.105 0.895-2 2-2s2 0.895 2 2z"></path>
<path d="M23.333 28c1.105 0 2-0.895 2-2s-0.895-2-2-2c-1.105 0-2 0.895-2 2s0.895 2 2 2z"></path>
</symbol>
<symbol id="icon-heart" viewBox="0 0 32 32">
<path d="M15.26 8.314l0.849 0.848 0.74-0.74c2.83-2.83 7.419-2.83 10.25 0s2.83 7.419 0 10.25l-5.973 5.973c-2.83 2.83-7.419 2.83-10.25 0l-5.973-5.973c-2.83-2.83-2.83-7.419 0-10.25s7.419-2.83 10.25 0l0.108-0.108zM22.822 26.342l5.973-5.973c3.768-3.768 3.768-9.876 0-13.644-3.496-3.496-9.008-3.748-12.795-0.755-3.787-2.993-9.299-2.741-12.795 0.755-3.768 3.768-3.768 9.876 0 13.644l5.973 5.973c3.768 3.768 9.876 3.768 13.644 0v0z"></path>
</symbol>
<symbol id="icon-search" viewBox="0 0 32 32">
<path fill="#5c5f60" style="fill: var(--color1, #5c5f60)" d="M22.157 24.042l4.9 4.9 1.886-1.886-4.9-4.9c1.642-2.053 2.624-4.657 2.624-7.49 0-6.627-5.373-12-12-12s-12 5.373-12 12c0 6.627 5.373 12 12 12 2.833 0 5.437-0.982 7.49-2.624zM24 14.667c0 5.155-4.179 9.333-9.333 9.333s-9.333-4.179-9.333-9.333 4.179-9.333 9.333-9.333c5.155 0 9.333 4.179 9.333 9.333z"></path>
</symbol>
<symbol id="icon-subtract" viewBox="0 0 32 32">
<path d="M8.080 4.738c4.374-4.184 11.465-4.184 15.839 0 3.913 3.743 4.382 9.659 1.103 13.924l-9.023 11.738-9.023-11.738c-3.278-4.265-2.81-10.181 1.103-13.924zM16 17.6c2.651 0 4.8-2.149 4.8-4.8s-2.149-4.8-4.8-4.8c-2.651 0-4.8 2.149-4.8 4.8s2.149 4.8 4.8 4.8z"></path>
</symbol>
<symbol id="icon-vector" viewBox="0 0 32 32">
<path d="M24 10.4c0 0.884-0.716 1.6-1.6 1.6h-12.8c-0.884 0-1.6-0.716-1.6-1.6s0.716-1.6 1.6-1.6h12.8c0.884 0 1.6 0.716 1.6 1.6z"></path>
<path d="M8 16.8c0 0.884 0.716 1.6 1.6 1.6h12.8c0.884 0 1.6-0.716 1.6-1.6s-0.716-1.6-1.6-1.6h-12.8c-0.884 0-1.6 0.716-1.6 1.6z"></path>
<path d="M6.4 0.8h19.2c3.535 0 6.4 2.865 6.4 6.4v12.8c0 3.535-2.865 6.4-6.4 6.4h-9.842c-0.896 0-1.781 0.188-2.599 0.552l-7.31 3.249c-2.75 1.223-5.848-0.791-5.848-3.801v-19.2c0-3.535 2.865-6.4 6.4-6.4zM25.6 4h-19.2c-1.767 0-3.2 1.433-3.2 3.2v19.2c0 0.694 0.714 1.158 1.349 0.876l7.311-3.249c1.227-0.545 2.556-0.827 3.899-0.827h9.842c1.767 0 3.2-1.433 3.2-3.2v-12.8c0-1.767-1.433-3.2-3.2-3.2z"></path>
</symbol>
</defs>
</svg>
